<svg xmlns="http://www.w3.org/2000/svg" width="60" height="44" fill="none">
  <path fill="#600B50"
    d="M58.147 14.53H51.257c-3.891 0-7.133 3.162-7.133 7.053 0 3.972 3.242 7.133 7.133 7.133H58.147c.892 0 1.54-.648 1.54-1.54V16.071c0-.892-.648-1.54-1.54-1.54Zm-7.052 9.647a2.56 2.56 0 0 1-2.594-2.594c0-1.378 1.135-2.513 2.594-2.513a2.525 2.525 0 0 1 2.513 2.513c0 1.46-1.135 2.594-2.513 2.594Zm-9.727-2.594c0-5.431 4.458-9.89 9.889-9.89h3.81v-7.7c0-2.108-1.784-3.891-3.891-3.891H4.404c-2.108 0-3.81 1.783-3.81 3.89v35.343c0 2.108 1.702 3.891 3.81 3.891h46.772c2.107 0 3.89-1.783 3.89-3.89v-7.782h-3.809c-5.431 0-9.89-4.459-9.89-9.971Zm-6.323 7.133c0 1.135-.973 2.027-2.108 2.027a2.007 2.007 0 0 1-2.026-2.027v-8.998c0-1.702-1.46-3.08-3.162-3.08a3.079 3.079 0 0 0-3.08 3.08v8.998c0 1.135-.973 2.027-2.108 2.027a2.007 2.007 0 0 1-2.026-2.027v-8.998c0-1.702-1.378-3.08-3.162-3.08a3.079 3.079 0 0 0-3.08 3.08v8.998c0 1.135-.973 2.027-2.107 2.027a2.007 2.007 0 0 1-2.027-2.027v-8.998c0-3.972 3.242-7.214 7.214-7.214 2.027 0 3.891.81 5.188 2.189 1.378-1.378 3.162-2.189 5.188-2.189 4.053 0 7.296 3.242 7.296 7.214v8.998Z" />
</svg>