<svg xmlns="http://www.w3.org/2000/svg" width="24" height="25" fill="none">
  <symbol id="history">
    <path
      d="M12.069.422a11.994 11.994 0 0 1 11.375 15.6l-8.854-5.1v-7.9a2.593 2.593 0 0 0-2.521-2.6Zm8.774 20.11A12 12 0 1 1 11.931.421a2.611 2.611 0 0 0-2.541 2.6v9.31c.001.33.055.66.159.973a.072.072 0 0 1 .02.06h.02l.02.06.02.04v.02l.02.04v.02l.02.04.02.02.02.04v.02l.02.04h.02v.02l.02.02v.02c.02.02.02.04.04.04v.02l.02.04h.02v.02l.02.02.02.02.02.04.02.02v.02l.04.04v.02h.02l.02.02v.02l.04.04h.02l.02.04.02.02.02.02.02.02.02.02v.02h.02l.02.02.02.02.02.02.02.02h.02v.02l.02.02h.02l.02.02.02.02.02.02.02.02h.02v.02l.04.02.02.02.02.02h.02l.04.02v.02h.02l.02.02h.02l.02.02.02.02h.02l.04.02v.02h.02l.04.02 10.065 5.816-.011-.01Z"
    />
  </symbol>
</svg>