<svg xmlns="http://www.w3.org/2000/svg" width="22" height="25" fill="none">
  <symbol id="insurance">
    <path
      d="M10.982.425c-.163.02-.323.057-.478.11l-8.6 3.09A1.421 1.421 0 0 0 .838 5.093c0 11.54 1.323 14.076 9.078 18.932.328.197.69.332 1.066.4.387-.068.76-.203 1.1-.4 7.718-4.85 9.078-7.387 9.078-18.928a1.421 1.421 0 0 0-1.063-1.472l-8.6-3.09a2.14 2.14 0 0 0-.515-.11ZM9.953 8.658a1 1 0 0 1 1.029-1.033 1.036 1.036 0 0 1 1.066 1.033v2.72h2.683a1.037 1.037 0 0 1 1.066 1.03 1.067 1.067 0 0 1-1.066 1.065h-2.683v2.682a1.068 1.068 0 0 1-1.066 1.07 1.037 1.037 0 0 1-1.029-1.07v-2.683H7.238a1.067 1.067 0 0 1-1.066-1.066 1.036 1.036 0 0 1 1.066-1.028h2.72v-2.72h-.005Z"
    />
  </symbol>
</svg>