<svg xmlns="http://www.w3.org/2000/svg" width="24" height="24" fill="none">
  <symbol id="meetings">
    <path
      d="M9.2 10.898a5.324 5.324 0 0 1-6.86-5.2A5.38 5.38 0 0 1 7.632.255a5.355 5.355 0 0 1 5.241 4.483 6.3 6.3 0 0 0-1.582 1.224 7.31 7.31 0 0 0-2.1 4.935l.01.001Zm12.47.245a5.315 5.315 0 1 1-5.316-5.425 5.383 5.383 0 0 1 5.315 5.425ZM24 22.747v-1.6a2.988 2.988 0 0 0-2.943-3.014h-9.416a2.984 2.984 0 0 0-2.924 3.014v1.6a.834.834 0 0 0 .828.848h13.627a.835.835 0 0 0 .828-.848ZM9.343 12.669h-6.4A2.988 2.988 0 0 0 0 15.683v1.6a.834.834 0 0 0 .828.848h7.025c.123-.165.257-.323.4-.471a4.854 4.854 0 0 1 2.947-1.412 7.334 7.334 0 0 1-1.857-3.579Z"
    />
  </symbol>
</svg>