<svg xmlns="http://www.w3.org/2000/svg" width="24" height="23" fill="none">
  <symbol id="office">
    <path
      d="M2.56 22.937h18.88a2.408 2.408 0 0 0 2.387-2.387V8.225a2.37 2.37 0 0 0-2.387-2.344h-2.865V1.802h-.041V1.543h-.043v-.132l-.043-.043v-.087l-.046-.043-.044-.044v-.043l-.043-.044v-.043h-.043v-.043l-.044-.044-.043-.043V.89h-.043V.843h-.043l-.044-.039L18.01.76V.717h-.087V.673h-.043L17.834.63l-.04-.043h-.087V.543h-.087L17.577.5h-.087l-.043-.044h-.174l-.04-.043H6.902A1.463 1.463 0 0 0 5.425 1.89v3.992H2.56A2.371 2.371 0 0 0 .174 8.225V20.55a2.408 2.408 0 0 0 2.387 2.387Zm9.419-6.987a1.562 1.562 0 0 1 0-3.125 1.564 1.564 0 1 1 0 3.125Zm3.645-10.069H8.377V3.364h7.247v2.517Z"
    />
  </symbol>
</svg>