<svg xmlns="http://www.w3.org/2000/svg" width="24" height="25" fill="none">
  <symbol id="services">
    <path
      d="M3.56 24.89h.081a3.657 3.657 0 0 0 2.561-1.052l5.258-5.447a9.164 9.164 0 0 0 9.87-1.969 9.084 9.084 0 0 0 2.238-9.169.572.572 0 0 0-.4-.378.6.6 0 0 0-.512.162l-4.854 4.855a1.9 1.9 0 0 1-2.67 0l-2.1-2.1a1.856 1.856 0 0 1 0-2.67l4.854-4.854a.561.561 0 0 0 .135-.539.5.5 0 0 0-.358-.381A9.069 9.069 0 0 0 6.418 13.159L1.08 18.718a3.612 3.612 0 0 0 2.481 6.175v-.003Z"
    />
  </symbol>
</svg>