<svg xmlns="http://www.w3.org/2000/svg" width="36" height="37" fill="none">
  <symbol id="settings">
    <path
      d="M34.293 14.342H32.4a1.71 1.71 0 0 1-1.591-1.137c-.076-.228-.191-.454-.265-.646a1.672 1.672 0 0 1 .339-1.933l1.365-1.363a1.693 1.693 0 0 0 0-2.426l-2.957-2.954a1.691 1.691 0 0 0-2.424 0L25.5 5.246a1.732 1.732 0 0 1-1.933.341c-.226-.076-.415-.189-.643-.265a1.71 1.71 0 0 1-1.135-1.591v-1.9a1.7 1.7 0 0 0-1.7-1.7h-4.17a1.7 1.7 0 0 0-1.7 1.7v1.937a1.674 1.674 0 0 1-1.145 1.593c-.222.07-.438.16-.646.265a1.753 1.753 0 0 1-1.928-.341L9.133 3.92a1.693 1.693 0 0 0-2.426 0L3.752 6.877a1.691 1.691 0 0 0 0 2.424l1.363 1.365a1.734 1.734 0 0 1 .341 1.933 4.726 4.726 0 0 0-.265.643A1.709 1.709 0 0 1 3.6 14.379H1.7A1.7 1.7 0 0 0 0 16.085v4.167a1.69 1.69 0 0 0 1.7 1.667h1.863a1.674 1.674 0 0 1 1.591 1.137c.076.228.189.454.265.683a1.753 1.753 0 0 1-.341 1.933l-1.326 1.326a1.691 1.691 0 0 0 0 2.424l2.954 2.957a1.693 1.693 0 0 0 2.426 0l1.289-1.289a1.68 1.68 0 0 1 1.893-.341c.265.115.53.228.759.341a1.728 1.728 0 0 1 1.1 1.591v1.743a1.7 1.7 0 0 0 1.705 1.707h4.167a1.7 1.7 0 0 0 1.707-1.707v-1.856a1.709 1.709 0 0 1 1.1-1.591c.263-.09.517-.204.759-.341a1.675 1.675 0 0 1 1.893.341l1.289 1.289a1.701 1.701 0 0 0 2.426 0l2.954-2.957a1.694 1.694 0 0 0 0-2.426l-1.29-1.252a1.724 1.724 0 0 1-.339-1.933 5.08 5.08 0 0 0 .265-.683 1.71 1.71 0 0 1 1.591-1.132h1.893A1.7 1.7 0 0 0 36 20.177v-4.168a1.69 1.69 0 0 0-1.707-1.667ZM18 22.031a3.9 3.9 0 1 1 0-7.8 3.9 3.9 0 0 1 0 7.8Z"
    />
  </symbol>
</svg>