<svg xmlns="http://www.w3.org/2000/svg" width="216" height="44" fill="none">
  <symbol id="logo">
    <path
      d="M182.495 28.635c.081-.73.162-1.297.243-1.945.081-.568.324-1.054.568-1.46.324-.486.648-.81 1.134-1.053.406-.243.973-.405 1.703-.486.162 0 .243 0 .243-.163 0-.08-.081-.162-.081-.162-.649-.73-1.216-1.459-1.865-2.188-.567-.73-1.134-1.378-1.702-2.108-.081-.081-.162-.162-.162-.324s.162-.324.324-.324h2.756c.244 0 .406 0 .487.08.081 0 .162.082.324.244l3.324 4.215c.081.081.162.081.243.081.081 0 .162-.081.162-.324v-3.891c0-.243.162-.405.486-.405h2.351c.081 0 .243 0 .324.08.081.082.081.244.081.406v3.89c0 .244.081.325.243.244.081-.081.244-.162.325-.243l3.242-4.053c.081-.162.162-.243.324-.243.081-.081.244-.081.487-.081h2.675c.243 0 .324.162.324.324 0 .08-.081.243-.162.324l-3.567 4.296-.162.162c0 .163.081.163.243.163.73.08 1.297.243 1.784.486.405.243.81.567 1.053.973.325.486.487.972.649 1.54.081.648.162 1.216.162 1.945l.243 2.594c0 .405-.162.568-.486.568h-2.351c-.324 0-.486-.163-.486-.487l-.162-2.837c0-.324-.082-.648-.163-.973-.081-.243-.243-.486-.405-.73-.162-.242-.405-.404-.648-.567-.325-.08-.649-.162-1.054-.162-.649 0-1.135.244-1.54.649-.325.486-.568 1.054-.568 1.702v3c0 .242-.081.405-.405.405h-2.432c-.243 0-.405-.163-.405-.406v-3.323c0-.568-.162-.973-.487-1.378-.324-.487-.891-.649-1.621-.649-.405 0-.81.081-1.054.162-.324.163-.567.325-.729.568-.162.243-.243.486-.324.73-.081.324-.162.648-.162.972l-.163 2.837a.62.62 0 0 1-.162.406c0 .08-.162.08-.405.08h-2.27c-.324 0-.486-.162-.486-.567l.162-2.594Zm-2.675-3.81c0 .325-.081.568-.243.73-.162.162-.406.243-.649.243h-6.485c-.243 0-.405 0-.486.081-.081.162-.162.243-.162.405v.406c0 .648.243 1.216.648 1.702.406.486.973.73 1.703.73.567 0 1.135-.163 1.54-.487.405-.243.729-.567 1.054-.973l.243-.243c.162 0 .243 0 .486.162l1.459.892c.162.162.325.243.406.405.081.081.081.244 0 .406-.568.973-1.297 1.621-2.189 2.026-.892.487-1.864.649-2.918.649-.892 0-1.703-.081-2.351-.325-.73-.243-1.297-.567-1.783-1.053-.487-.487-.892-.973-1.135-1.622-.324-.648-.406-1.378-.406-2.107v-3.405c0-.81.082-1.54.406-2.188.243-.649.648-1.135 1.135-1.622.486-.486 1.053-.891 1.783-1.134.648-.244 1.459-.325 2.27-.325.81 0 1.54.081 2.269.325.649.243 1.297.567 1.784 1.053a6.518 6.518 0 0 1 1.216 1.703c.243.648.405 1.378.405 2.188v1.378Zm-5.674-3.81c-.649 0-1.135.244-1.54.649a2.511 2.511 0 0 0-.73 1.46c0 .323.162.404.486.404h3.729c.162 0 .243 0 .324-.162.081-.08.081-.243.081-.405-.081-.567-.324-1.054-.81-1.378-.405-.405-.892-.567-1.54-.567Zm-7.863.244h-2.837c-.081 0-.163.08-.244.162V31.229c0 .405-.243.568-.648.568h-2.108c-.405 0-.567-.163-.567-.568v-9.646c0-.081 0-.162-.081-.243 0-.081-.081-.081-.243-.081h-2.675c-.406 0-.568-.162-.568-.568V18.99c0-.405.162-.567.568-.567h9.403c.405 0 .648.162.648.486v1.783c0 .406-.243.568-.648.568ZM154.367 31.39c0 .244-.162.406-.406.406h-2.35c-.243 0-.325-.081-.325-.325v-.243c0-.324-.162-.324-.486-.162-.243.243-.648.486-1.054.649-.486.162-.972.243-1.621.243-1.54 0-2.756-.405-3.648-1.216-.891-.81-1.378-1.946-1.378-3.405 0-1.459.487-2.594 1.378-3.485.892-.81 2.189-1.297 3.81-1.297.811 0 1.621.243 2.351.648.081.081.162.081.243.081.081 0 .162-.08.162-.243v-.324c0-.649-.162-1.054-.567-1.378-.324-.325-.973-.487-1.783-.487-.244 0-.487 0-.73.081-.243 0-.567.081-.811.163-.324.08-.648.08-.891.162-.244.08-.487.162-.73.243-.324.162-.567.081-.648-.243l-.568-1.54c-.081-.163-.081-.244 0-.406.081-.08.162-.162.243-.162.73-.324 1.378-.567 2.189-.73.73-.162 1.54-.243 2.27-.243.972 0 1.783.081 2.432.325.729.243 1.215.567 1.702.972.405.487.729.973.892 1.622.162.648.324 1.297.324 2.107v8.187Zm-3.567-4.134c0-.648-.243-1.135-.648-1.54-.406-.486-.892-.648-1.622-.648-.81 0-1.378.162-1.783.567-.405.486-.567.973-.567 1.621 0 .649.162 1.135.567 1.54.405.487.973.649 1.702.649.811 0 1.378-.162 1.784-.649.405-.486.567-.972.567-1.54Zm-19.292-8.835h8.349c.324 0 .486.08.486.405V31.39c0 .244-.162.406-.486.406h-2.351c-.324 0-.486-.163-.486-.406V21.34c-.081-.081-.162-.081-.325-.081h-2.269c-.243 0-.406.162-.406.486v2.675c0 1.297-.081 2.35-.243 3.161-.162.892-.405 1.622-.729 2.19a4.455 4.455 0 0 1-1.297 1.458 8.898 8.898 0 0 1-1.703 1.135c-.243.081-.405.081-.486 0l-.243-.243-.73-1.54c-.081-.162-.081-.325-.081-.325l.325-.324c.486-.243.81-.486 1.134-.81.244-.325.487-.73.649-1.216.081-.487.243-1.054.243-1.784.081-.648.081-1.459.081-2.512v-4.783c0-.324.162-.405.568-.405Zm-5.269-4.783V31.31c0 .325-.244.487-.568.487h-2.351c-.324 0-.567-.163-.567-.487V16.638c0-.324-.162-.486-.486-.486h-5.188c-.162 0-.325.08-.406.08 0 .082-.081.244-.081.406V31.31c0 .325-.162.487-.567.487h-2.27c-.405 0-.648-.163-.648-.487V13.72c0-.405.243-.567.648-.567h11.916c.324 0 .568.162.568.486Zm-27.237 5.269c0-.243.081-.324.405-.324h1.622c.162 0 .243 0 .243.08.081.082.081.163.081.244v8.673c0 .244.081.244.162.082l1.621-2.675 3.729-5.999c.081-.162.243-.243.324-.324.081-.081.243-.081.487-.081h1.297c.162 0 .324 0 .324.08.081.082.081.163.081.244v12.564c0 .244-.081.325-.324.325h-1.703c-.162 0-.243 0-.324-.081 0 0-.081-.082-.081-.244v-8.916c-.081 0-.081.08-.162.08l-1.54 2.595-3.81 6.241c-.162.162-.243.325-.324.325h-1.703c-.162 0-.324 0-.324-.081-.081 0-.081-.082-.081-.244V18.908ZM58.147 14.53H51.257c-3.891 0-7.133 3.161-7.133 7.052 0 3.972 3.242 7.133 7.133 7.133H58.147c.892 0 1.54-.648 1.54-1.54V16.071c0-.892-.648-1.54-1.54-1.54Zm-7.052 9.646a2.56 2.56 0 0 1-2.594-2.594c0-1.378 1.135-2.513 2.594-2.513a2.525 2.525 0 0 1 2.513 2.513c0 1.46-1.135 2.594-2.513 2.594Zm153.205-5.27c0-.323.163-.485.568-.485h2.107c.244 0 .406.08.487.162.081.08.081.243.081.405v6.647c0 .162.081.243.243.243.081 0 .081 0 .162-.08.243-.325.406-.65.568-.974.162-.324.405-.567.567-.891.486-.892 1.054-1.703 1.54-2.513.487-.81 1.054-1.621 1.54-2.513.163-.162.244-.324.406-.405.081 0 .243-.081.486-.081h1.783c.406 0 .568.162.568.567V31.31c0 .325-.162.487-.568.487h-2.188c-.324 0-.568-.163-.568-.487v-6.728c0-.243 0-.324-.081-.324a.174.174 0 0 0-.162.162c-.162.324-.405.649-.567.892-.162.324-.406.648-.568.973l-3.242 5.106c-.162.244-.324.325-.405.406h-2.189c-.405 0-.568-.163-.568-.487V18.908ZM95.84 26.853c0 1.621-.486 2.918-1.377 3.81-.973.892-2.27 1.297-3.891 1.297-1.703 0-3-.405-3.972-1.297-.892-.892-1.378-2.108-1.378-3.729v-3.486c0-1.54.486-2.756 1.378-3.729.891-.891 2.188-1.378 3.89-1.378 1.703 0 3.08.487 3.973 1.378.972.892 1.378 2.108 1.378 3.73v3.404Zm-2.35-3.405c0-.891-.243-1.62-.73-2.188-.486-.568-1.216-.81-2.188-.81-.892 0-1.622.242-2.108.81-.567.567-.81 1.297-.81 2.188v3.486c0 .81.243 1.54.648 2.108.486.567 1.216.891 2.189.891 1.053 0 1.783-.324 2.27-.891.405-.568.648-1.216.729-2.108v-3.486Zm-11.51 8.35h-1.784c-.243 0-.324-.081-.324-.325V19.718l-.082-.08s0 .08-.08.08l-1.216 3.567-2.919 7.458c-.08.08-.08.162-.162.324a.62.62 0 0 1-.405.162h-1.216c-.162 0-.243-.08-.324-.08-.162-.082-.243-.163-.243-.325l-2.756-7.296-1.297-3.728c-.082-.082-.163-.082-.163 0v11.672c0 .244-.08.325-.324.325h-1.702c-.243 0-.324-.081-.324-.325V13.72c0-.324.162-.567.486-.567h1.216c.324 0 .486 0 .486.08.081.082.162.163.325.406l3.972 10.781 1.215 3.324c.082.162.163.162.244.08.162-.567.405-1.134.567-1.783.162-.567.405-1.134.567-1.702l4.053-10.781c.082-.162.163-.243.244-.324.162 0 .243-.081.486-.081h1.216c.243 0 .405.08.486.162 0 .08.081.243.081.405v17.752c0 .244-.162.325-.324.325ZM41.366 21.583c0-5.431 4.459-9.89 9.89-9.89h3.81v-7.7c0-2.108-1.784-3.891-3.891-3.891H4.404c-2.108 0-3.81 1.783-3.81 3.89v35.343c0 2.108 1.702 3.891 3.81 3.891h46.772c2.107 0 3.89-1.783 3.89-3.89v-7.782h-3.809c-5.431 0-9.89-4.459-9.89-9.971Zm-6.322 7.133c0 1.135-.973 2.027-2.108 2.027a2.007 2.007 0 0 1-2.026-2.027v-8.998c0-1.702-1.46-3.08-3.162-3.08a3.079 3.079 0 0 0-3.08 3.08v8.998c0 1.135-.973 2.027-2.108 2.027a2.007 2.007 0 0 1-2.026-2.027v-8.998c0-1.702-1.378-3.08-3.162-3.08a3.079 3.079 0 0 0-3.08 3.08v8.998c0 1.135-.973 2.027-2.107 2.027a2.007 2.007 0 0 1-2.027-2.027v-8.998c0-3.972 3.242-7.214 7.214-7.214 2.027 0 3.891.81 5.188 2.189 1.378-1.378 3.162-2.189 5.188-2.189 4.053 0 7.296 3.242 7.296 7.214v8.998Z" />
  </symbol>
</svg>